<svg xmlns="http://www.w3.org/2000/svg" viewBox="4.335939884185791 1.9638698101043701 41.32589340209961 44.072052001953125"><g xmlns="http://www.w3.org/2000/svg" opacity="0.15" filter="url(#filter0_d_1915_133566)"><path d="M43.0936 8.70265C40.8786 8.68413 38.6863 8.25482 36.6279 7.43649C34.0596 6.53849 31.7698 4.17672 30.1893 3.30567C28.6973 2.38335 26.9678 1.91821 25.2144 1.96766C23.3758 1.91672 21.5596 2.38011 19.9701 3.30567C18.3896 4.20366 15.9471 6.3499 13.3788 7.25688C11.3168 8.07203 9.12149 8.49825 6.9042 8.51405C6.3654 8.51405 5.91639 8.51405 5.54821 8.51405C5.22824 8.51404 4.92127 8.64057 4.69417 8.86598C4.46708 9.09139 4.33831 9.39743 4.33594 9.71739V20.6281C4.35225 22.1579 4.61921 23.6747 5.12618 25.1181C5.62088 26.9567 6.40927 28.7033 7.46095 30.2905C8.56156 32.2147 9.9013 33.9919 11.4481 35.5797C13.5552 37.8223 15.8505 39.8803 18.3088 41.7311C19.8534 42.8805 25.2593 46.1582 25.2144 46.0324C25.2144 46.1582 30.3869 42.8805 31.9314 41.7311C34.3136 39.9414 36.5314 37.9429 38.5586 35.7593C40.1068 34.1727 41.4467 32.3953 42.5458 30.4701C43.5926 28.8846 44.3779 27.1413 44.8716 25.3066C45.3779 23.863 45.6449 22.3464 45.6618 20.8166V9.87003C45.663 9.71168 45.6328 9.55469 45.5727 9.40815C45.5127 9.26162 45.424 9.12846 45.312 9.01648C45.2001 8.90451 45.0669 8.81591 44.9204 8.75587C44.7738 8.69582 44.6169 8.66555 44.4586 8.66675C44.0904 8.66675 43.6324 8.67571 43.0936 8.70265Z" fill="#1F1D20"/></g></svg>